<svg id="Capa_1" data-name="Capa 1" xmlns="http://www.w3.org/2000/svg" viewBox="0 0 2468.05 793.33"><defs><style>.cls-1{fill:#314453;}.cls-2{fill:#fa5959;}</style></defs><polygon class="cls-1" points="524.41 27.01 14.19 522.62 176 523.13 533.06 176.1 460.96 523.13 587.15 523.63 684.69 26.5 524.41 27.01"/><polygon class="cls-1" points="1017.5 26.54 963.74 312.61 854.32 26.54 729.29 26.54 632.38 523.55 753.84 523.55 812.22 231.35 921.85 523.55 1042.2 523.55 1139.11 26.54 1017.5 26.54"/><path class="cls-1" d="M1559.8,266.92a391.22,391.22,0,0,0,7.76-80.48,186.26,186.26,0,0,0-18.82-82v0c-15.9-32.25-41.25-54.73-75.39-66.82-19.41-6.85-44.6-10.56-74.86-11h-214L1088.41,524H1299c75.1,0,138-31.25,186.85-92.92,35.32-44.75,60.19-100,73.93-164.09Zm-130.24.49v.07c-6.81,32.62-17.49,61-31.72,84.32-25.17,41-57.25,61-98,61L1228,411.24l58.37-273.47h77.92c19.86,0,35.71,2.73,47.11,8.11,9.89,4.68,16.34,11.33,19.7,20.34C1439.58,188.86,1439.06,222.9,1429.56,267.41Z"/><polygon class="cls-1" points="1947.58 319.41 1971.5 208.07 1743.99 208.07 1758.62 138.67 2006.34 138.67 2030.58 25.74 1656.46 25.74 1550.66 523.98 1936.18 523.98 1960.32 409.78 1701.11 409.78 1720.18 319.41 1947.58 319.41"/><path class="cls-1" d="M2413.37,54.39c-32.08-28.71-75.3-43.26-128.47-43.26-62.48,0-114,15.1-153.1,44.9-39.39,30-64.26,68.31-73.92,113.88-11,52-.54,91.22,31.07,116.61,17.91,14.57,50.58,27.34,99.92,39.05l47.65,11.2c32.17,7.36,47.16,14.75,54,19.61,5.1,3.64,9.46,8.67,6.83,20.65l0,.16c-4.4,21.15-18.37,35.35-42.68,43.39-13.95,4.59-31.92,6.92-53.42,6.92-32.95,0-54.2-7.35-63.16-21.84-3.25-5.47-6.77-16.72-5.2-39.38l1.11-16H2011.88l-2.53,11.88c-11.55,54.16-.65,97.69,32.38,129.39,31.91,30.63,81.07,46.17,146.1,46.17,63,0,115.93-15.32,157.32-45.51,41.85-30.53,68.09-69.6,78-116.13,10.06-47.2,1.29-84.26-26.1-110.16-17.16-16.19-43.25-28.56-79.73-37.8l-77-19.47,0,0c-36.7-9.17-48.62-14.83-52.46-17.4l-.34-.22c-5.66-3.56-10.51-8.67-7.67-21.89,3-14.11,11-24.88,24.7-32.93,14.92-8.79,33.9-13.25,56.4-13.25,20,0,35.83,3.3,47,9.77,9.36,5.46,21.26,16.07,16.69,45l-2.74,17.36h124.65l2.21-12.37C2458.66,127.43,2446.75,84.26,2413.37,54.39Z"/><path class="cls-2" d="M15,778.09V630.86a1.92,1.92,0,0,1,2.16-2.17h11a1.92,1.92,0,0,1,2.17,2.17V778.09a1.92,1.92,0,0,1-2.17,2.17h-11A1.91,1.91,0,0,1,15,778.09Z"/><path class="cls-2" d="M167.85,628.69h11a1.92,1.92,0,0,1,2.17,2.17V778.09a1.92,1.92,0,0,1-2.17,2.17H168.06a3.13,3.13,0,0,1-2.59-1.52L91.63,658.57c-.14-.43-.36-.61-.65-.54s-.43.32-.43.76l.22,119.3a1.92,1.92,0,0,1-2.17,2.17h-11a1.92,1.92,0,0,1-2.17-2.17V630.86a1.92,1.92,0,0,1,2.17-2.17H88.38a3.15,3.15,0,0,1,2.6,1.52l73.84,120.17c.14.43.36.61.65.54s.43-.33.43-.76l-.22-119.3A1.92,1.92,0,0,1,167.85,628.69Z"/><path class="cls-2" d="M319.63,630.86v9.31a1.92,1.92,0,0,1-2.17,2.16H275a.77.77,0,0,0-.86.87V778.09a1.92,1.92,0,0,1-2.17,2.17H261a1.91,1.91,0,0,1-2.16-2.17V643.2a.77.77,0,0,0-.87-.87H217.21a1.91,1.91,0,0,1-2.16-2.16v-9.31a1.92,1.92,0,0,1,2.16-2.17H317.46A1.92,1.92,0,0,1,319.63,630.86Z"/><path class="cls-2" d="M449.54,642.12H369.86a.77.77,0,0,0-.87.86v53.48a.77.77,0,0,0,.87.87h55.86a1.92,1.92,0,0,1,2.17,2.16v9.1a1.92,1.92,0,0,1-2.17,2.16H369.86a.77.77,0,0,0-.87.87V766a.76.76,0,0,0,.87.86h79.68A1.92,1.92,0,0,1,451.7,769v9.09a1.91,1.91,0,0,1-2.16,2.17H355.78a1.91,1.91,0,0,1-2.16-2.17V630.86a1.92,1.92,0,0,1,2.16-2.17h93.76a1.92,1.92,0,0,1,2.16,2.17V640A1.91,1.91,0,0,1,449.54,642.12Z"/><path class="cls-2" d="M508.43,776a43.44,43.44,0,0,1-17.86-16.78,48,48,0,0,1-6.39-24.9V674.59a48.07,48.07,0,0,1,6.39-24.9,43.63,43.63,0,0,1,17.86-16.78Q519.91,627,535.06,627q14.94,0,26.53,5.85a42.63,42.63,0,0,1,17.86,16.34,45.4,45.4,0,0,1,6.28,23.71v2.82a1.92,1.92,0,0,1-2.17,2.16h-11a1.91,1.91,0,0,1-2.16-2.16v-2.6q0-14.51-9.64-23.6t-25.66-9.1q-16,0-25.76,9.31t-9.75,24.47v60.63q0,15.15,10,24.46t26.2,9.31q15.81,0,25.23-8.66t9.42-23.16V717a.77.77,0,0,0-.87-.86H537.66A1.91,1.91,0,0,1,535.5,714v-9.09a1.92,1.92,0,0,1,2.16-2.17h45.9a1.92,1.92,0,0,1,2.17,2.17v27.93Q585.73,756,572,769t-36.92,13Q519.91,782,508.43,776Z"/><path class="cls-2" d="M711.74,778.74l-31.83-67.12a.84.84,0,0,0-.86-.65H642.24a.77.77,0,0,0-.87.87v66.25a1.91,1.91,0,0,1-2.16,2.17h-11a1.92,1.92,0,0,1-2.17-2.17V630.86a1.92,1.92,0,0,1,2.17-2.17h56.07q18.63,0,30.1,11.59t11.48,30.2q0,15.16-8.23,25.77t-22.3,13.64c-.58.29-.73.65-.44,1.08l32.48,66.69a2.47,2.47,0,0,1,.22,1.08c0,1-.58,1.52-1.73,1.52H714.34A2.55,2.55,0,0,1,711.74,778.74ZM641.37,643v54.78a.77.77,0,0,0,.87.87h40.27q12.56,0,20.36-7.8t7.79-20.35q0-12.56-7.79-20.46t-20.36-7.9H642.24A.77.77,0,0,0,641.37,643Z"/><path class="cls-2" d="M858.11,778.52l-8.66-27.28a.86.86,0,0,0-.87-.65H783.84a.84.84,0,0,0-.86.65l-8.66,27.28a2.53,2.53,0,0,1-2.6,1.74H760c-1.59,0-2.16-.79-1.73-2.39l47.85-147.45a2.54,2.54,0,0,1,2.6-1.73h14.73a2.52,2.52,0,0,1,2.59,1.73l48.07,147.45.22.87c0,1-.65,1.52-2,1.52H860.71A2.52,2.52,0,0,1,858.11,778.52Zm-70.7-40.81a1,1,0,0,0,.76.33H844a1,1,0,0,0,.75-.33.61.61,0,0,0,.11-.76l-28.15-88.34a.68.68,0,0,0-.65-.43.69.69,0,0,0-.65.43L787.31,737A.6.6,0,0,0,787.41,737.71Z"/><path class="cls-2" d="M923.5,776.25a43.33,43.33,0,0,1-17.87-16.89q-6.37-10.92-6.38-25.22V674.59a48.16,48.16,0,0,1,6.38-24.9,43.66,43.66,0,0,1,17.87-16.78Q935,627,950.13,627t26.63,5.85a43.2,43.2,0,0,1,17.86,16.45,46.51,46.51,0,0,1,6.39,24.47,2.31,2.31,0,0,1-.65,1.73,2.08,2.08,0,0,1-1.51.65l-11.05.65q-2.16,0-2.16-2v-.65q0-15.37-9.74-24.57t-25.77-9.21q-16,0-25.77,9.31t-9.74,24.47v60.63q0,15.15,9.74,24.46t25.77,9.31q16,0,25.77-9.2t9.74-24.57v-.44c0-1.29.72-1.94,2.16-1.94l11.05.65c1.44,0,2.16.64,2.16,1.94q0,14.09-6.39,24.79a43,43,0,0,1-17.86,16.57q-11.47,5.85-26.63,5.85T923.5,776.25Z"/><path class="cls-2" d="M1039.77,778.09V630.86a1.92,1.92,0,0,1,2.16-2.17h11a1.92,1.92,0,0,1,2.16,2.17V778.09a1.91,1.91,0,0,1-2.16,2.17h-11A1.91,1.91,0,0,1,1039.77,778.09Z"/><path class="cls-2" d="M1119.88,775.71a44.24,44.24,0,0,1-18.08-17.65q-6.39-11.35-6.39-26.3V677.19q0-14.94,6.39-26.31a44.34,44.34,0,0,1,18.08-17.64q11.68-6.29,27.06-6.28t27.18,6.28a44.23,44.23,0,0,1,18.18,17.64q6.39,11.37,6.39,26.31v54.57q0,14.94-6.39,26.3a44.13,44.13,0,0,1-18.18,17.65q-11.8,6.28-27.18,6.28T1119.88,775.71Zm53.48-16.89q10-10,10-26.41V677q0-16.46-10-26.53t-26.42-10.07q-16.23,0-26.2,10.07t-10,26.53v55.43q0,16.46,10,26.41t26.2,10Q1163.4,768.78,1173.36,758.82Zm-35.29-145.18a1.77,1.77,0,0,1,.21-1.84l13-23.6a2.55,2.55,0,0,1,2.6-1.51h9.75q1.29,0,1.62.75a2,2,0,0,1-.33,1.84l-14.72,23.61a3.14,3.14,0,0,1-2.6,1.51h-7.79A1.8,1.8,0,0,1,1138.07,613.64Z"/><path class="cls-2" d="M1331.64,628.69h11a1.92,1.92,0,0,1,2.16,2.17V778.09a1.91,1.91,0,0,1-2.16,2.17h-10.83a3.15,3.15,0,0,1-2.6-1.52l-73.83-120.17c-.15-.43-.36-.61-.65-.54s-.43.32-.43.76l.21,119.3a1.91,1.91,0,0,1-2.16,2.17h-11a1.92,1.92,0,0,1-2.17-2.17V630.86a1.92,1.92,0,0,1,2.17-2.17h10.82a3.15,3.15,0,0,1,2.6,1.52l73.83,120.17c.15.43.36.61.65.54s.44-.33.44-.76l-.22-119.3A1.92,1.92,0,0,1,1331.64,628.69Z"/><path class="cls-2" d="M1437.51,778.09V630.86a1.92,1.92,0,0,1,2.17-2.17h11a1.92,1.92,0,0,1,2.17,2.17V766a.75.75,0,0,0,.86.86h76.43a1.92,1.92,0,0,1,2.17,2.17v9.09a1.92,1.92,0,0,1-2.17,2.17h-90.5A1.92,1.92,0,0,1,1437.51,778.09Z"/><path class="cls-2" d="M1583.88,775.71a44.36,44.36,0,0,1-18.08-17.65q-6.39-11.35-6.38-26.3V677.19q0-14.94,6.38-26.31a44.46,44.46,0,0,1,18.08-17.64Q1595.58,627,1611,627t27.17,6.28a44.25,44.25,0,0,1,18.19,17.64q6.38,11.37,6.39,26.31v54.57q0,14.94-6.39,26.3a44.15,44.15,0,0,1-18.19,17.65Q1626.32,782,1611,782T1583.88,775.71Zm53.48-16.89q10-10,10-26.41V677q0-16.46-10-26.53T1611,640.38q-16.25,0-26.2,10.07t-10,26.53v55.43q0,16.46,10,26.41t26.2,10Q1627.41,768.78,1637.36,758.82Z"/><path class="cls-2" d="M1722.67,776a43.44,43.44,0,0,1-17.86-16.78,48,48,0,0,1-6.39-24.9V674.59a48.07,48.07,0,0,1,6.39-24.9,43.63,43.63,0,0,1,17.86-16.78q11.47-5.94,26.63-5.95,14.94,0,26.53,5.85a42.63,42.63,0,0,1,17.86,16.34,45.4,45.4,0,0,1,6.28,23.71v2.82a1.92,1.92,0,0,1-2.17,2.16h-11a1.91,1.91,0,0,1-2.16-2.16v-2.6q0-14.51-9.64-23.6t-25.66-9.1q-16,0-25.76,9.31t-9.75,24.47v60.63q0,15.15,10,24.46t26.2,9.31q15.81,0,25.23-8.66t9.42-23.16V717a.77.77,0,0,0-.87-.86H1751.9a1.91,1.91,0,0,1-2.16-2.17v-9.09a1.92,1.92,0,0,1,2.16-2.17h45.9a1.92,1.92,0,0,1,2.17,2.17v27.93q0,23.17-13.75,36.16t-36.92,13Q1734.15,782,1722.67,776Z"/><path class="cls-2" d="M1838.94,613.64a1.75,1.75,0,0,1,.22-1.84l13-23.6a2.54,2.54,0,0,1,2.6-1.51h9.74q1.3,0,1.62.75a2,2,0,0,1-.32,1.84l-14.72,23.61a3.15,3.15,0,0,1-2.6,1.51h-7.8A1.82,1.82,0,0,1,1838.94,613.64Zm1.3,164.45V630.86a1.92,1.92,0,0,1,2.16-2.17h11a1.92,1.92,0,0,1,2.16,2.17V778.09a1.91,1.91,0,0,1-2.16,2.17h-11A1.91,1.91,0,0,1,1840.24,778.09Z"/><path class="cls-2" d="M1905.73,771q-14.18-11.06-14.18-29.45v-6.71a1.92,1.92,0,0,1,2.17-2.17h10.61a1.92,1.92,0,0,1,2.16,2.17v5.84q0,12.57,10.4,20.25t28.79,7.68q16.68,0,25.34-7t8.66-18.73a21.24,21.24,0,0,0-4-13q-4-5.41-12.34-10.18a219.14,219.14,0,0,0-23.49-11,250.07,250.07,0,0,1-25.23-11.37,42.35,42.35,0,0,1-14.5-12.56q-5.53-7.68-5.53-19.38,0-18.18,12.67-28.25T1942,627q24,0,37.89,11.26t13.86,29.88v4.76a1.91,1.91,0,0,1-2.16,2.17h-10.83a1.92,1.92,0,0,1-2.17-2.17V669a25.35,25.35,0,0,0-9.85-20.57q-9.85-8-27.39-8-15.37,0-23.6,6.28t-8.23,18.19q0,7.8,4,12.88a33.54,33.54,0,0,0,11.48,8.88q7.47,3.79,23,9.85a210.73,210.73,0,0,1,25.45,12.13,50.75,50.75,0,0,1,15.59,13.75q5.94,8.11,6,19.81,0,18.18-13.42,29T1944.38,782Q1919.92,782,1905.73,771Z"/><path class="cls-2" d="M2120.42,630.86v9.31a1.92,1.92,0,0,1-2.17,2.16h-42.44a.76.76,0,0,0-.86.87V778.09a1.92,1.92,0,0,1-2.17,2.17h-11a1.92,1.92,0,0,1-2.17-2.17V643.2a.77.77,0,0,0-.86-.87H2018a1.91,1.91,0,0,1-2.16-2.16v-9.31a1.92,1.92,0,0,1,2.16-2.17h100.25A1.92,1.92,0,0,1,2120.42,630.86Z"/><path class="cls-2" d="M2154.41,778.09V630.86a1.92,1.92,0,0,1,2.16-2.17h11a1.92,1.92,0,0,1,2.17,2.17V778.09a1.92,1.92,0,0,1-2.17,2.17h-11A1.91,1.91,0,0,1,2154.41,778.09Z"/><path class="cls-2" d="M2234.3,776.25a43.31,43.31,0,0,1-17.86-16.89q-6.39-10.92-6.39-25.22V674.59a48.07,48.07,0,0,1,6.39-24.9,43.63,43.63,0,0,1,17.86-16.78q11.47-5.94,26.63-5.95t26.64,5.85a43.32,43.32,0,0,1,17.86,16.45,46.61,46.61,0,0,1,6.39,24.47,2.35,2.35,0,0,1-.65,1.73,2.11,2.11,0,0,1-1.52.65l-11,.65c-1.45,0-2.17-.65-2.17-2v-.65q0-15.37-9.74-24.57t-25.77-9.21q-16,0-25.76,9.31t-9.75,24.47v60.63q0,15.15,9.75,24.46t25.76,9.31q16,0,25.77-9.2t9.74-24.57v-.44c0-1.29.72-1.94,2.17-1.94l11,.65c1.44,0,2.17.64,2.17,1.94a47.54,47.54,0,0,1-6.39,24.79,43.14,43.14,0,0,1-17.86,16.57q-11.49,5.85-26.64,5.85T2234.3,776.25Z"/><path class="cls-2" d="M2437.61,778.52,2429,751.24a.84.84,0,0,0-.86-.65h-64.74a.85.85,0,0,0-.87.65l-8.66,27.28a2.52,2.52,0,0,1-2.6,1.74h-11.69c-1.59,0-2.17-.79-1.73-2.39l47.85-147.45a2.53,2.53,0,0,1,2.6-1.73H2403a2.53,2.53,0,0,1,2.6,1.73l48.07,147.45.21.87c0,1-.65,1.52-1.94,1.52h-11.7A2.53,2.53,0,0,1,2437.61,778.52Zm-70.69-40.81a1,1,0,0,0,.76.33h55.86a1,1,0,0,0,.76-.33.61.61,0,0,0,.11-.76l-28.15-88.34a.69.69,0,0,0-.65-.43.68.68,0,0,0-.65.43L2366.81,737A.61.61,0,0,0,2366.92,737.71Z"/></svg>